Coordinates
version=1
nRows=17
nColumns=38
inDegrees=no

Units are S.I. units (second, meters, Newtons, ...)
If the header above contains a line with 'inDegrees', this indicates whether rotational values are in degrees (yes) or radians (no).

endheader
time	pelvis_tilt	pelvis_list	pelvis_rotation	pelvis_tx	pelvis_ty	pelvis_tz	hip_flexion_r	hip_adduction_r	hip_rotation_r	knee_angle_r	ankle_angle_r	subtalar_angle_r	mtp_angle_r	hip_flexion_l	hip_adduction_l	hip_rotation_l	knee_angle_l	ankle_angle_l	subtalar_angle_l	mtp_angle_l	lumbar_extension	lumbar_bending	lumbar_rotation	arm_flex_r	arm_add_r	arm_rot_r	elbow_flex_r	pro_sup_r	wrist_flex_r	wrist_dev_r	arm_flex_l	arm_add_l	arm_rot_l	elbow_flex_l	pro_sup_l	wrist_flex_l	wrist_dev_l
50	2.54007	1.46905	-0.845617	0.652828	0.660634	0.940053	-0.124587	-0.0619678	-0.282382	0.205525	-0.306571	0	0	-0.184194	-0.14883	-0.314138	0.039994	-0.470927	0	0	-0.20064	0.133099	-0.19094	0.235873	-0.357392	0.743986	0.627196	1.11393	0	0	0.0181771	-0.249927	0.254275	0.62666	1.54364	0	0
50.01	2.53518	1.46943	-0.841284	0.652946	0.660831	0.940008	-0.123778	-0.0617856	-0.281524	0.206027	-0.30617	0	0	-0.183703	-0.148993	-0.314519	0.040357	-0.470445	0	0	-0.199657	0.133126	-0.190514	0.236065	-0.358096	0.741816	0.625136	1.11325	0	0	0.0188371	-0.249896	0.256838	0.628929	1.54219	0	0
50.02	2.53159	1.46977	-0.838104	0.653062	0.66106	0.939943	-0.123145	-0.0616967	-0.28073	0.20676	-0.305611	0	0	-0.183292	-0.149144	-0.315267	0.0409093	-0.469728	0	0	-0.198735	0.133057	-0.190165	0.235551	-0.358412	0.738083	0.623361	1.11167	0	0	0.0194225	-0.25026	0.260603	0.631486	1.54016	0	0
50.03	2.52978	1.46983	-0.836501	0.653177	0.661322	0.939892	-0.123097	-0.06145	-0.280113	0.207169	-0.305341	0	0	-0.18326	-0.149406	-0.316049	0.0414157	-0.469133	0	0	-0.198005	0.133084	-0.19021	0.235299	-0.358842	0.735164	0.621727	1.11105	0	0	0.0197272	-0.250408	0.263877	0.634242	1.53864	0	0
50.04	2.52884	1.46978	-0.835612	0.653291	0.661604	0.939851	-0.123722	-0.0609769	-0.279446	0.206452	-0.305327	0	0	-0.183333	-0.149733	-0.316812	0.0420004	-0.468559	0	0	-0.19732	0.13316	-0.190458	0.235148	-0.359332	0.732599	0.620191	1.11111	0	0	0.0200102	-0.250293	0.267079	0.637005	1.53703	0	0
50.05	2.53003	1.46942	-0.836391	0.653342	0.661859	0.939837	-0.124859	-0.0604443	-0.279503	0.205532	-0.305542	0	0	-0.183668	-0.150197	-0.317171	0.0426235	-0.468042	0	0	-0.197108	0.133361	-0.191129	0.235134	-0.359922	0.730225	0.618985	1.11135	0	0	0.02033	-0.250334	0.270355	0.639863	1.53565	0	0
50.06	2.5319	1.46885	-0.837406	0.653355	0.662138	0.939839	-0.126632	-0.0595981	-0.280041	0.20384	-0.30584	0	0	-0.184058	-0.150917	-0.317216	0.0434426	-0.46759	0	0	-0.197137	0.133618	-0.192165	0.235175	-0.36059	0.728255	0.618001	1.11182	0	0	0.0206872	-0.250658	0.274134	0.642366	1.53532	0	0
50.07	2.53341	1.46807	-0.838185	0.653375	0.662393	0.939866	-0.128246	-0.0587117	-0.280574	0.202732	-0.305924	0	0	-0.184679	-0.151734	-0.317335	0.0439966	-0.46732	0	0	-0.197462	0.13409	-0.193092	0.23545	-0.361487	0.72672	0.617381	1.11221	0	0	0.0212256	-0.250825	0.278204	0.644792	1.53512	0	0
50.08	2.53518	1.46731	-0.839439	0.653457	0.662671	0.939916	-0.129494	-0.0579631	-0.2813	0.202412	-0.305702	0	0	-0.185534	-0.152492	-0.31773	0.044192	-0.467187	0	0	-0.197893	0.134492	-0.193868	0.235343	-0.362039	0.724533	0.616975	1.11143	0	0	0.0216443	-0.250936	0.281966	0.647422	1.53445	0	0
50.09	2.53817	1.46635	-0.841858	0.653497	0.662861	0.940001	-0.130683	-0.0572979	-0.282189	0.20259	-0.305201	0	0	-0.186533	-0.153164	-0.318016	0.0443932	-0.466991	0	0	-0.198952	0.135081	-0.194702	0.235395	-0.362644	0.722313	0.617012	1.1104	0	0	0.0221173	-0.25098	0.285452	0.650397	1.53398	0	0
50.1	2.53941	1.4657	-0.842431	0.653483	0.662989	0.940059	-0.131269	-0.0567928	-0.28306	0.203181	-0.304576	0	0	-0.18699	-0.15361	-0.317985	0.0446709	-0.466755	0	0	-0.199694	0.135637	-0.195547	0.235959	-0.363664	0.72131	0.617005	1.11036	0	0	0.0228019	-0.250535	0.28813	0.652733	1.53407	0	0
50.11	2.53721	1.46644	-0.840372	0.653476	0.663053	0.939971	-0.129633	-0.0574236	-0.283105	0.205396	-0.303165	0	0	-0.186099	-0.15312	-0.318216	0.0450558	-0.466262	0	0	-0.199367	0.13553	-0.195688	0.236123	-0.364884	0.719544	0.61763	1.10942	0	0	0.0235433	-0.250132	0.291239	0.65495	1.53454	0	0
50.12	2.53406	1.46723	-0.837558	0.653516	0.663135	0.939854	-0.127785	-0.0580352	-0.283073	0.207827	-0.301817	0	0	-0.185069	-0.152755	-0.318945	0.0457065	-0.465622	0	0	-0.198885	0.13542	-0.195663	0.235944	-0.36576	0.71717	0.618225	1.10717	0	0	0.0241619	-0.2497	0.29405	0.657092	1.53497	0	0
50.13	2.53043	1.46802	-0.834214	0.653569	0.663227	0.939745	-0.125962	-0.0585307	-0.28317	0.210015	-0.300521	0	0	-0.183844	-0.152482	-0.319875	0.0466278	-0.464912	0	0	-0.198341	0.135406	-0.195725	0.235637	-0.366371	0.714706	0.618664	1.10458	0	0	0.024621	-0.249212	0.296493	0.659427	1.53486	0	0
50.14	2.52696	1.46877	-0.831079	0.653643	0.663311	0.939662	-0.12419	-0.0589438	-0.283135	0.212122	-0.299215	0	0	-0.182607	-0.152235	-0.320861	0.047679	-0.464169	0	0	-0.197924	0.135487	-0.19571	0.235631	-0.367199	0.713127	0.619046	1.10297	0	0	0.0250213	-0.248692	0.298488	0.661918	1.53413	0	0
50.15	2.52519	1.46927	-0.829569	0.653715	0.663377	0.939607	-0.122603	-0.0593348	-0.283415	0.214455	-0.297943	0	0	-0.181575	-0.152067	-0.321823	0.0489253	-0.463326	0	0	-0.198069	0.135507	-0.195683	0.236002	-0.368009	0.712208	0.618953	1.10177	0	0	0.0253843	-0.248643	0.300462	0.664467	1.53375	0	0
50.16	2.52415	1.46948	-0.828643	0.653772	0.663434	0.939577	-0.121104	-0.0596145	-0.28416	0.217106	-0.296932	0	0	-0.180725	-0.15214	-0.322616	0.0502843	-0.462395	0	0	-0.198558	0.135661	-0.195808	0.236694	-0.368759	0.711949	0.618315	1.10109	0	0	0.0257104	-0.248686	0.30221	0.666985	1.53324	0	0
